<svg width="100%" height="100%" viewBox="0 0 180 180" fill="none" xmlns="http://www.w3.org/2000/svg">
<path d="M90 16.875C49.6793 16.875 16.875 49.6793 16.875 90C16.875 130.321 49.6793 163.125 90 163.125C130.321 163.125 163.125 130.321 163.125 90C163.125 49.6793 130.321 16.875 90 16.875ZM72.3445 57.9445C76.7988 53.223 83.0672 50.625 90 50.625C96.9328 50.625 103.145 53.2406 107.617 57.9867C112.148 62.7961 114.353 69.2578 113.832 76.2047C112.792 90 102.104 101.25 90 101.25C77.8957 101.25 67.1871 90 66.1676 76.2012C65.6508 69.198 67.8516 62.7152 72.3445 57.9445V57.9445ZM90 151.875C81.7399 151.88 73.5628 150.227 65.9537 147.013C58.3445 143.799 51.4582 139.09 45.7031 133.165C48.9992 128.464 53.199 124.468 58.057 121.409C67.0184 115.664 78.3598 112.5 90 112.5C101.64 112.5 112.982 115.664 121.932 121.409C126.795 124.466 130.998 128.463 134.297 133.165C128.542 139.091 121.656 143.8 114.047 147.014C106.438 150.228 98.2602 151.881 90 151.875V151.875Z" fill="black"/>
</svg>
